<!-- Generated by IcoMoon.io -->
<svg version="1.1" xmlns="http://www.w3.org/2000/svg" width="24" height="32" viewBox="0 0 24 32">
<path d="M19.627 18.48l-2.453-0.28c-0.587-0.067-1.16 0.133-1.573 0.547l-1.787 1.773c-2.72-1.387-4.96-3.613-6.347-6.347l1.773-1.787c0.427-0.413 0.627-1 0.56-1.587l-0.28-2.427c-0.12-0.987-0.933-1.707-1.92-1.707h-1.667c-1.093 0-2 0.907-1.933 1.987 0.507 8.24 7.093 14.827 15.333 15.333 1.080 0.067 1.987-0.84 1.987-1.933v-1.667c0.013-0.973-0.72-1.787-1.693-1.907z"></path>
</svg>
